<svg width="14" height="14" viewBox="0 0 14 14" fill="none" xmlns="http://www.w3.org/2000/svg">
<mask id="mask0_13_3280" style="mask-type:luminance" maskUnits="userSpaceOnUse" x="0" y="0" width="14" height="14">
<path d="M13.7891 0.469999H0.789062V13.47H13.7891V0.469999Z" fill="white"/>
</mask>
<g mask="url(#mask0_13_3280)">
<path d="M10.2701 0.469999H4.30804C2.36764 0.469999 0.789062 2.04858 0.789062 3.98898V9.9511C0.789062 11.8914 2.36764 13.47 4.30804 13.47H10.2702C12.2105 13.47 13.789 11.8914 13.789 9.9511V3.98898C13.789 2.04858 12.2105 0.469999 10.2701 0.469999ZM13.0269 9.9511C13.0269 11.4712 11.7902 12.7079 10.2701 12.7079H4.30804C2.78788 12.7079 1.55118 11.4712 1.55118 9.9511V3.98898C1.55118 2.46881 2.78788 1.23211 4.30804 1.23211H10.2702C11.7902 1.23211 13.0269 2.46881 13.0269 3.98898V9.9511Z" fill="#17254E"/>
<path d="M7.28895 3.41531C5.32891 3.41531 3.73438 5.00986 3.73438 6.96989C3.73438 8.92993 5.32891 10.5245 7.28895 10.5245C9.24898 10.5245 10.8435 8.92993 10.8435 6.96989C10.8435 5.00986 9.24898 3.41531 7.28895 3.41531ZM7.28895 9.76236C5.74925 9.76236 4.49648 8.50969 4.49648 6.96989C4.49648 5.43019 5.74925 4.17743 7.28895 4.17743C8.82875 4.17743 10.0814 5.43019 10.0814 6.96989C10.0814 8.50969 8.82875 9.76236 7.28895 9.76236Z" fill="#17254E"/>
<path d="M10.9288 2.15262C10.3495 2.15262 9.87842 2.62383 9.87842 3.20295C9.87842 3.78218 10.3495 4.25339 10.9288 4.25339C11.508 4.25339 11.9792 3.78218 11.9792 3.20295C11.9792 2.62373 11.508 2.15262 10.9288 2.15262ZM10.9288 3.49118C10.7699 3.49118 10.6405 3.36184 10.6405 3.20295C10.6405 3.04397 10.7699 2.91473 10.9288 2.91473C11.0877 2.91473 11.2171 3.04397 11.2171 3.20295C11.2171 3.36184 11.0877 3.49118 10.9288 3.49118Z" fill="#17254E"/>
</g>
</svg>
