<svg width="14" height="14" viewBox="0 0 14 14" fill="none" xmlns="http://www.w3.org/2000/svg">
<path d="M2.57381 0.469999C2.08907 0.469999 1.64838 0.646279 1.31788 0.976787C0.965343 1.32932 0.789062 1.76998 0.789062 2.23269C0.789062 2.71743 0.987368 3.15812 1.31788 3.48862C1.64838 3.81913 2.1111 4.01744 2.55178 3.99541C2.55178 3.99541 2.57381 3.99541 2.59586 3.99541C3.03654 3.99541 3.45518 3.81913 3.78569 3.48862C4.1162 3.15812 4.3145 2.71743 4.3145 2.23269C4.33653 1.76998 4.13822 1.3293 3.80771 0.998786C3.4772 0.646253 3.03652 0.469999 2.57381 0.469999ZM3.47721 3.18017C3.23482 3.42255 2.90432 3.57678 2.55178 3.55475C2.22127 3.55475 1.86874 3.42255 1.62636 3.18017C1.36195 2.93779 1.22975 2.58525 1.22975 2.23272C1.22975 1.88019 1.36195 1.54968 1.62636 1.28527C1.86874 1.04289 2.19925 0.910685 2.57381 0.910685C2.90432 0.910685 3.23482 1.04289 3.47721 1.28527C3.74161 1.54968 3.87381 1.88019 3.87381 2.23272C3.87381 2.58525 3.74161 2.93779 3.47721 3.18017Z" fill="#17254E"/>
<path d="M3.4335 4.43582H1.64876C1.29622 4.43582 1.00977 4.72225 1.00977 5.09684V12.8087C1.00977 13.1612 1.31825 13.4697 1.67078 13.4697H3.4335C3.78604 13.4697 4.09452 13.1612 4.09452 12.8307V5.09684C4.09452 4.74428 3.78604 4.43582 3.4335 4.43582ZM3.65383 12.8307C3.65383 12.9409 3.54365 13.029 3.4335 13.029H1.67078C1.5606 13.029 1.45045 12.9189 1.45045 12.8087V5.09684C1.45045 4.98666 1.53858 4.87651 1.64876 4.87651H3.4335C3.54368 4.87651 3.65383 4.98668 3.65383 5.09684V12.8307Z" fill="#17254E"/>
<path d="M10.9247 4.21609H10.462C9.60264 4.21609 8.78739 4.59068 8.25858 5.18559V4.87711C8.25858 4.65678 8.03825 4.43642 7.81789 4.43642H5.61451C5.41621 4.43642 5.17383 4.6127 5.17383 4.85506V13.0737C5.17383 13.3161 5.41621 13.4703 5.61451 13.4703H8.03825C8.23656 13.4703 8.47894 13.3161 8.47894 13.0737V8.31437C8.47894 7.58725 9.00775 7.01436 9.69079 7.01436C10.0433 7.01436 10.3738 7.14657 10.6162 7.38895C10.8365 7.58725 10.9247 7.89574 10.9247 8.29235V13.0296C10.9247 13.25 11.145 13.4703 11.3654 13.4703H13.5688C13.7891 13.4703 14.0094 13.25 14.0094 13.0296V7.3449C14.0094 5.5822 12.6654 4.21609 10.9247 4.21609ZM13.5687 13.0076L13.5467 13.0296H11.3874L11.3654 8.29237C11.3654 7.76356 11.2332 7.36695 10.9467 7.08052C10.6162 6.75001 10.1755 6.57373 9.71282 6.57373C8.78739 6.59575 8.06028 7.34492 8.06028 8.3144V13.0296H5.63654V4.87711H7.81789L7.83992 4.89914V6.28727L8.43483 5.69236L8.45686 5.67033C8.89755 5.05339 9.66872 4.65678 10.484 4.65678H10.9467C12.423 4.65678 13.5687 5.84661 13.5687 7.34492V13.0076Z" fill="#17254E"/>
</svg>
