<?xml version="1.0" encoding="utf-8"?>
<!-- Generator: Adobe Illustrator 25.2.0, SVG Export Plug-In . SVG Version: 6.00 Build 0)  -->
<svg version="1.1" id="Layer_1" xmlns="http://www.w3.org/2000/svg" xmlns:xlink="http://www.w3.org/1999/xlink" x="0px" y="0px"
	 viewBox="0 0 512 160" style="enable-background:new 0 0 512 160;" xml:space="preserve">
<style type="text/css">
	.st0{fill:#0A867C;}
	.st1{fill:#F79052;}
</style>
<path d="M255.4,49.1c0.4-0.1,1.1-0.3,1.8-0.3c10,0,20-0.2,29.9,0.3c3.8,0.2,7.9,1.6,11.3,3.4c7.9,4.3,9.3,15.1,2.6,21.8
	c-3.9,3.9-8.8,6.7-14,10.6c5.9,10.7,12.2,22.1,18.8,34c-4.5,0-8.8,0.2-13.1-0.1c-0.9-0.1-1.9-1.6-2.4-2.7
	c-4.5-8.7-8.8-17.5-13.2-26.3c-8.4,3.8-9.4,7.2-8.7,28.8c-4.4,0-8.8,0-13,0C255.4,95.5,255.4,72.4,255.4,49.1z M267.6,90.4
	c5-3.8,9.5-7.2,14-10.7c3-2.4,6.4-4.5,8.9-7.3c6.2-6.9,4.1-15.3-4.8-17.9c-5-1.5-10.5-1.3-15.9-1.6c-0.7,0-2.1,1.4-2.2,2.2
	C267.5,66.7,267.6,78.4,267.6,90.4z"/>
<path d="M115.3,88.4c0.3,3.1,0.5,6.3,1.1,9.4c2.4,13.7,19.7,22.4,32.1,16.1c5.2-2.7,8-7.2,8.1-13c0.1-5.4-2.9-9.3-7.6-11.5
	c-4.8-2.3-9.9-3.9-14.9-5.9c-3.1-1.2-6.4-2.2-9.4-3.7c-6-2.9-9.4-7.8-9.5-14.5c-0.1-6.5,2.9-11.4,8.6-14.2
	c11.8-5.9,23.3-4.6,34.7,1.4c3.5,1.9,5,4.3,4.4,8.3c-0.3,2.2-0.1,4.5-0.1,6.8c-0.4,0-0.7,0-1.1,0.1c-0.2-0.7-0.6-1.5-0.7-2.2
	c-1.3-6.7-5.5-10.8-11.9-12.5c-5.1-1.4-10.3-1.7-15.5,0.3c-4.3,1.6-6.8,4.9-6.8,8.9c0,4.4,2.4,7.2,6.4,8.7c7.2,2.7,14.6,5,21.7,8.2
	c12.9,5.8,17.1,17.8,10.4,28.8c-4.2,6.9-10.9,10.4-18.7,11.9c-11.1,2.1-20.8-1.1-30.1-7.1c-3.5-2.3-4.7-4.6-4-8.7
	c0.9-5.1,1-10.3,1.5-15.5C114.5,88.3,114.9,88.4,115.3,88.4z"/>
<path d="M335.5,118.8c15.8-21.4,31.6-42.9,48.1-65.3c-2.4-0.2-3.4-0.4-4.4-0.4c-7.4,0-14.7,0-22.1,0c-6.7-0.1-13.4-0.5-17.3,7.2
	c-0.3-0.3-0.7-0.5-1-0.8c0.2-3.1,0.4-6.2,0.8-9.3c0.1-0.5,1.5-1.3,2.2-1.3c19.7,0,39.4,0,59.1,0c0.2,0,0.4,0.2,0.2,0.1
	c-15.8,21.5-31.7,43-47.6,64.5c0.3,0.3,0.6,0.7,0.8,1c1.2,0.1,2.4,0.2,3.6,0.2c7.1,0,14.2-0.1,21.3,0c6.7,0.1,13.4,0.2,17.5-6.9
	c0.3,0.2,0.7,0.3,1,0.5c-0.3,3.2-0.5,6.4-0.9,9.6c-0.1,0.4-1.4,1-2.1,1c-19.7,0-39.4,0-59.1,0C335.5,118.9,335.2,118.6,335.5,118.8z
	"/>
<path d="M474.1,118.9c-4.2,0-8.1,0.2-11.9-0.1c-1-0.1-2.2-1.6-2.6-2.7c-1.2-3.4-2.1-6.9-3.1-10.3c-3.5-12.2-15-13.4-23.3-12.1
	c-9.4,1.4-17.6,13.5-12,22.8c0.4,0.6,0.4,1.4,0.7,2.3c-4,0-7.7,0-11.6,0c0.1-0.7,0-1.3,0.2-1.8c4.8-12.5,9.8-25,14.5-37.6
	c3.5-9.2,6.7-18.5,10-27.8c0.7-2.1,1.9-2.9,4.1-2.8c10.7,0.4,8.1-2.2,12.1,8.5c7.6,20,15.2,40,22.7,60
	C473.9,117.6,473.9,118,474.1,118.9z M451.5,92c-4.6-12.5-8.8-24-13.3-36.6c-4.6,12.7-8.8,24.3-13.3,36.7
	C433.8,87.9,442.2,88,451.5,92z"/>
<path d="M247.1,93.2c-1.3,6.3-4.7,11.6-9.2,16.2c-11.6,11.8-29.5,14.3-44.1,6.1c-14-7.8-21.1-24.7-17.2-40.8
	c3.8-15.4,18.2-26.8,34.5-27.2c8.9-0.2,17.1,1.8,24.4,6.9c1.6,1.1,3.3,2.6,5.1,3c3.9,0.9,4.3,3.3,4.1,6.6c-0.2,3.6-0.1,7.1-0.1,10.7
	c-0.4,0.1-0.7,0.2-1.1,0.4c-0.6-1-1.4-2-1.8-3c-3-6.9-7.3-12.7-14.1-16.4c-12-6.4-25.5-3.4-33.8,7.4c-8.7,11.5-8.6,30.1,0.4,41.3
	c11.8,14.7,33.8,14.1,45.6-1.4c2.4-3.2,4.3-6.8,6.5-10.2C246.5,92.9,246.8,93.1,247.1,93.2z"/>
<path class="st0" d="M37.8,77.8c0-11.6,0-23.2,0-34.8c0-4.7,2-6.9,6-6.8c3.9,0,5.9,2.2,5.9,6.6c0,23.5,0,46.9,0,70.4
	c0,4.1-2.5,6.8-5.9,6.9c-3.6,0.1-6-2.7-6-7C37.8,101.3,37.8,89.5,37.8,77.8z"/>
<path class="st1" d="M326,118.2c-3.1,0-7.1,0-10.9,0c0-22.9,0-45.7,0-68.8c3.8,0,7.8,0,10.9,0c0,11.7,0,23.1,0,34.5
	C326,95.3,326,106.6,326,118.2z"/>
<path class="st1" d="M74.6,90c0,7.5,0,15,0,22.5c0,4.7-2.3,7.5-5.9,7.6c-3.7,0.1-6.2-3-6.2-7.7c0-15.2,0-30.4,0-45.6
	c0-2.9,0.9-5.5,3.7-6.3c1.9-0.5,4.7-0.3,6.1,0.9c1.4,1.2,2.2,3.9,2.3,5.9C74.8,74.7,74.6,82.3,74.6,90z"/>
<path class="st0" d="M99.2,98.9c0,5,0.1,10,0,14.9c-0.1,3.7-2.3,6.1-5.6,6.2c-3.1,0.1-6.1-2.3-6.2-5.8c-0.2-10.3-0.2-20.6,0-31
	c0.1-3.4,3.2-5.9,6.3-5.7c3.2,0.2,5.4,2.7,5.4,6.3C99.3,88.9,99.2,93.9,99.2,98.9z"/>
</svg>
