<svg width="13" height="11" viewBox="0 0 13 11" fill="none" xmlns="http://www.w3.org/2000/svg">
<path d="M8.51017 5.31197L5.63818 3.74054C5.47304 3.65019 5.27785 3.65356 5.11599 3.74947C4.95402 3.84547 4.85742 4.01507 4.85742 4.20332V7.3192C4.85742 7.50656 4.95343 7.67586 5.1143 7.77196C5.19831 7.82215 5.29144 7.84734 5.38477 7.84734C5.47026 7.84734 5.55596 7.82622 5.63481 7.78377L8.5069 6.23941C8.67739 6.14767 8.78381 5.97043 8.78461 5.77673C8.7853 5.58303 8.68017 5.405 8.51017 5.31197ZM5.61923 6.92724V4.59846L7.76572 5.77296L5.61923 6.92724Z" fill="#17254E"/>
<path d="M12.9136 3.29392L12.913 3.28797C12.902 3.18333 12.7924 2.25261 12.3399 1.77922C11.8169 1.22242 11.224 1.15477 10.9389 1.12234C10.9153 1.11966 10.8936 1.11718 10.8743 1.11461L10.8516 1.11223C9.13297 0.987257 6.53749 0.970198 6.51151 0.970098L6.50923 0.969999L6.50695 0.970098C6.48096 0.970198 3.88548 0.987257 2.1514 1.11223L2.12849 1.11461C2.11004 1.11709 2.08971 1.11937 2.06759 1.12195C1.78571 1.15448 1.19916 1.22222 0.674685 1.79916C0.243742 2.26749 0.11917 3.17827 0.106376 3.28063L0.104888 3.29392C0.10102 3.33746 0.00927734 4.374 0.00927734 5.41461V6.38739C0.00927734 7.428 0.10102 8.46454 0.104888 8.50818L0.105582 8.51473C0.116592 8.61768 0.226088 9.53134 0.67647 10.0049C1.16821 10.5431 1.78998 10.6143 2.12442 10.6526C2.17728 10.6586 2.22281 10.6638 2.25385 10.6692L2.2839 10.6734C3.27621 10.7678 6.38743 10.8143 6.51934 10.8162L6.52331 10.8163L6.52728 10.8162C6.55326 10.8161 9.14864 10.7991 10.8673 10.6741L10.89 10.6717C10.9117 10.6688 10.9361 10.6663 10.9629 10.6635C11.2432 10.6337 11.8265 10.5719 12.3438 10.0028C12.7747 9.53441 12.8994 8.62363 12.9121 8.52137L12.9136 8.50808C12.9174 8.46444 13.0093 7.428 13.0093 6.38739V5.41461C13.0092 4.374 12.9174 3.33756 12.9136 3.29392ZM12.2474 6.38739C12.2474 7.35054 12.1633 8.34245 12.1553 8.4335C12.123 8.68433 11.9916 9.26057 11.7816 9.48879C11.4579 9.84495 11.1253 9.88026 10.8825 9.90594C10.8532 9.90902 10.826 9.91199 10.8014 9.91507C9.13912 10.0353 6.64163 10.0537 6.52658 10.0544C6.39755 10.0525 3.33185 10.0056 2.36979 9.91626C2.3205 9.90822 2.26724 9.90208 2.2111 9.89573C1.92635 9.8631 1.53657 9.81847 1.23685 9.48879L1.2298 9.48125C1.02351 9.26632 0.89586 8.72747 0.863427 8.43647C0.857377 8.36764 0.771089 7.36402 0.771089 6.38739V5.41461C0.771089 4.45256 0.854997 3.46173 0.86313 3.3688C0.901711 3.07334 1.03561 2.53201 1.23685 2.31321C1.57049 1.94624 1.92229 1.90558 2.15497 1.8787C2.17718 1.87612 2.19791 1.87374 2.21705 1.87126C3.90353 1.75046 6.41897 1.73251 6.50923 1.73181C6.59948 1.73241 9.11403 1.75046 10.7855 1.87126C10.8061 1.87384 10.8285 1.87642 10.8526 1.8792C11.0919 1.90647 11.4536 1.94773 11.7856 2.30181L11.7887 2.30508C11.9949 2.52001 12.1226 3.06828 12.155 3.36513C12.1608 3.43009 12.2474 4.43589 12.2474 5.41461V6.38739Z" fill="#17254E"/>
</svg>
